<?xml version="1.0" encoding="UTF-8" standalone="no"?>
<!-- Generator: Adobe Illustrator 24.0.2, SVG Export Plug-In . SVG Version: 6.00 Build 0)  -->

<svg
   version="1.1"
   id="Layer_1"
   x="0px"
   y="0px"
   viewBox="0 0 2970.0001 2047.9999"
   enable-background="new 0 0 2427.88 1674.06"
   xml:space="preserve"
   sodipodi:docname="logo-white-purple-background.svg"
   width="2970"
   height="2048"
   inkscape:export-filename="logo-white-purple-background.svg"
   inkscape:export-xdpi="96"
   inkscape:export-ydpi="96"
   xmlns:inkscape="http://www.inkscape.org/namespaces/inkscape"
   xmlns:sodipodi="http://sodipodi.sourceforge.net/DTD/sodipodi-0.dtd"
   xmlns="http://www.w3.org/2000/svg"
   xmlns:svg="http://www.w3.org/2000/svg"><defs
   id="defs563" /><sodipodi:namedview
   id="namedview561"
   pagecolor="#505050"
   bordercolor="#eeeeee"
   borderopacity="1"
   inkscape:showpageshadow="0"
   inkscape:pageopacity="0"
   inkscape:pagecheckerboard="0"
   inkscape:deskcolor="#505050"
   showgrid="false"
   inkscape:zoom="0.19936824"
   inkscape:cx="970.56584"
   inkscape:cy="1484.6899"
   inkscape:window-width="2560"
   inkscape:window-height="1494"
   inkscape:window-x="-11"
   inkscape:window-y="-11"
   inkscape:window-maximized="1"
   inkscape:current-layer="Layer_1" />
<rect
   x="0"
   y="0"
   opacity="0.88"
   fill="#593399"
   width="2970"
   height="2048"
   id="rect492"
   style="display:none;stroke-width:0.473196" />
<g
   id="g558"
   transform="scale(1.2232895,1.2233658)"
   inkscape:label="g558"
   style="fill:#000000;fill-opacity:1">
	<g
   id="g500"
   style="fill:#000000;fill-opacity:1">
		<path
   fill="#ffffff"
   d="m 1899.92,862.36 c 2.99,-0.45 5.49,0.43 7.52,2.64 2.02,2.21 3.03,5.1 3.03,8.66 0,1.47 -0.09,2.64 -0.26,3.5 l -19.52,89.71 -27.95,29.67 16.35,23.32 -20.83,96.51 c -0.71,3.04 -2.02,5.55 -3.96,7.51 -1.94,1.97 -4.14,3.14 -6.59,3.51 l -214.93,32.29 57.75,-265.85 z m -92.82,91.29 -89.13,13.39 41.66,6.63 -2.9,13.33 44.83,-6.73 z m -17.14,79.6 -44.83,6.73 -5.8,26.65 44.83,-6.73 z"
   id="path494"
   style="fill:#000000;fill-opacity:1" />
		<path
   fill="#ffffff"
   d="m 2155.72,823.94 c 2.99,-0.45 5.54,0.43 7.65,2.62 2.11,2.2 3.16,5.08 3.16,8.64 0,0.63 -0.04,1.21 -0.13,1.75 -0.09,0.54 -0.22,1.14 -0.39,1.79 l -51.95,239.2 c -0.7,3.04 -1.98,5.54 -3.82,7.49 -1.85,1.96 -4,3.12 -6.46,3.49 l -200.95,30.19 c -2.99,0.45 -5.54,-0.43 -7.65,-2.62 -2.11,-2.2 -3.16,-4.97 -3.16,-8.33 0,-1.46 0.08,-2.63 0.26,-3.5 l 51.95,-239.2 c 0.7,-3.04 2.02,-5.6 3.96,-7.67 1.93,-2.07 4.13,-3.29 6.59,-3.66 z m -92.56,91.24 -89.4,13.43 41.93,6.59 -20.31,92.97 44.57,-6.69 z"
   id="path496"
   style="fill:#000000;fill-opacity:1" />
		<path
   fill="#ffffff"
   d="m 2338.48,796.48 89.4,-13.43 -26.9,123.51 -44.57,6.7 17.93,2.97 18.72,26.42 -22.94,106.25 -89.4,13.43 17.4,-79.64 -16.61,-23.29 -28.22,30.02 -17.14,79.6 -89.4,13.43 23.21,-106.3 27.95,-29.98 -16.61,-23.29 23.21,-106.3 89.4,-13.43 -17.4,79.96 16.61,22.97 27.95,-29.67 z"
   id="path498"
   style="fill:#000000;fill-opacity:1" />
	</g>
	<g
   id="g514"
   style="fill:#000000;fill-opacity:1">
		<path
   fill="#ffffff"
   d="M 179.54,1164.5 0,1129.03 l 383.98,-52.7 -16.6,79.38 -170.24,23.36 39.73,7.45 -2.77,13.28 106.62,-14.63 -16.85,80.68 -32.19,-22.33 -68.4,9.39 -33.17,159.09 v -0.32 l -77.45,-25.56 45.52,-218.69 z"
   id="path502"
   style="fill:#000000;fill-opacity:1" />
		<path
   fill="#ffffff"
   d="m 373.93,1335.15 c -2.85,0.39 -5.24,-0.54 -7.17,-2.79 -1.93,-2.25 -2.89,-5.16 -2.89,-8.73 0,-1.47 0.08,-2.53 0.25,-3.18 l 51.55,-248.47 85.25,-11.7 -35.96,172.37 -42.5,5.83 39.73,7.45 42.75,-5.87 38.47,-185.62 85.25,-11.7 -53.06,255.28 c -0.67,3.03 -1.93,5.51 -3.77,7.44 -1.85,1.93 -3.94,3.06 -6.29,3.38 z"
   id="path504"
   style="fill:#000000;fill-opacity:1" />
		<path
   fill="#ffffff"
   d="m 710.13,1108.99 -63.87,8.77 16.6,-79.7 212.74,-29.2 -16.35,79.67 -106.62,14.63 39.98,7.1 -35.96,172.37 -84.99,11.67 z"
   id="path506"
   style="fill:#000000;fill-opacity:1" />
		<path
   fill="#ffffff"
   d="m 865.53,1267.68 c -2.85,0.39 -5.24,-0.54 -7.17,-2.79 -1.93,-2.25 -2.89,-5.16 -2.89,-8.73 0,-1.47 0.08,-2.53 0.25,-3.18 l 51.55,-248.47 85.25,-11.7 -35.96,172.37 -42.5,5.83 39.73,7.45 42.75,-5.87 38.47,-185.62 85.25,-11.7 -53.06,255.28 c -0.67,3.03 -1.93,5.51 -3.77,7.44 -1.85,1.93 -3.94,3.06 -6.29,3.38 z"
   id="path508"
   style="fill:#000000;fill-opacity:1" />
		<path
   fill="#ffffff"
   d="m 1183.88,1223.99 -84.99,11.67 55.07,-265 199.41,-27.37 c 2.85,-0.39 5.28,0.53 7.29,2.77 2.01,2.24 3.02,5.15 3.02,8.71 0,1.47 -0.09,2.64 -0.25,3.5 l -18.61,89.42 -26.91,29.19 15.84,23.63 -22.13,105.95 -84.99,11.67 16.35,-79.35 -42.5,5.83 z m -4.02,-179.47 39.98,7.1 -2.77,13.28 42.5,-5.83 5.53,-26.25 z"
   id="path510"
   style="fill:#000000;fill-opacity:1" />
		<path
   fill="#ffffff"
   d="m 1557.81,1172.67 -212.99,29.23 55.07,-265 212.99,-29.23 -16.6,79.7 -170.24,23.36 39.73,7.45 -2.77,13.28 106.37,-14.6 -10.81,52.78 -106.62,14.63 -5.53,26.57 127.74,-17.53 z"
   id="path512"
   style="fill:#000000;fill-opacity:1" />
	</g>
	<g
   id="g532"
   style="fill:#000000;fill-opacity:1">
		<g
   id="g530"
   style="fill:#000000;fill-opacity:1">
			<path
   fill="#ffffff"
   d="m 302.01,1408.94 383.98,-52.7 -16.6,79.39 -170.24,23.36 39.73,7.45 -2.51,13.25 114.16,-15.67 c 2.85,-0.39 5.28,0.48 7.29,2.62 2.01,2.14 3.02,4.99 3.02,8.56 0,1.47 -0.09,2.64 -0.25,3.5 l -40.74,195.37 -73.68,-41.19 -128.25,17.6 16.6,-79.7 127.74,-17.53 5.53,-26.25 -127.74,17.53 20.12,-97.18 21.37,-2.93 z"
   id="path516"
   style="fill:#000000;fill-opacity:1" />
			<path
   fill="#ffffff"
   d="m 847.44,1334.09 84.99,-11.67 -53.06,255.28 c -0.5,3.01 -1.68,5.48 -3.52,7.41 -1.85,1.93 -3.94,3.06 -6.29,3.38 l -204.94,28.13 14.33,-69.63 127.74,-17.53 5.53,-26.57 -114.16,15.67 c -2.85,0.39 -5.28,-0.53 -7.29,-2.78 -2.01,-2.25 -3.02,-5.14 -3.02,-8.71 0,-1.47 0.08,-2.53 0.25,-3.18 l 31.68,-152.27 84.99,-11.67 -16.35,79.66 -42.75,5.87 39.98,7.42 -1.51,6.19 42.75,-5.87 z"
   id="path518"
   style="fill:#000000;fill-opacity:1" />
			<path
   fill="#ffffff"
   d="m 1126.05,1543.85 c -0.67,3.03 -1.93,5.51 -3.77,7.44 -1.85,1.94 -3.94,3.06 -6.29,3.38 l -204.94,28.13 16.6,-79.39 127.74,-17.53 5.53,-26.57 -114.42,15.7 c -2.85,0.39 -5.28,-0.53 -7.29,-2.78 -2.01,-2.24 -3.02,-5.14 -3.02,-8.71 0,-1.47 0.08,-2.53 0.25,-3.18 l 27.66,-132.52 c 0.67,-3.03 1.89,-5.56 3.65,-7.58 1.76,-2.02 3.81,-3.2 6.16,-3.52 l 205.19,-28.16 -16.6,79.7 -170.24,23.36 39.73,7.45 -2.77,13.28 114.42,-15.7 c 2.85,-0.39 5.24,0.49 7.17,2.64 1.93,2.15 2.89,5.01 2.89,8.57 0,1.47 -0.09,2.64 -0.25,3.5 z"
   id="path520"
   style="fill:#000000;fill-opacity:1" />
			<path
   fill="#ffffff"
   d="m 1260.58,1354.8 -63.87,8.77 16.6,-79.7 212.74,-29.2 -16.35,79.66 -106.62,14.63 39.98,7.1 -35.96,172.37 -84.99,11.67 z"
   id="path522"
   style="fill:#000000;fill-opacity:1" />
			<path
   fill="#ffffff"
   d="m 1620.18,1485.47 -212.99,29.23 55.07,-265 212.99,-29.23 -16.6,79.7 -170.24,23.36 39.73,7.45 -2.77,13.28 106.37,-14.6 -10.81,52.78 -106.62,14.63 -5.53,26.57 127.74,-17.53 z"
   id="path524"
   style="fill:#000000;fill-opacity:1" />
			<path
   fill="#ffffff"
   d="m 1802.23,1460.49 20.87,-100.11 -47.28,96.81 -10.56,-112.8 -42.5,5.83 39.48,7.17 -23.13,111.76 -85.25,11.7 55.07,-265 75.94,-10.42 c 2.68,-0.37 4.99,0.42 6.92,2.35 1.92,1.94 3.06,4.57 3.39,7.88 l 8.55,90.41 53.56,-110.58 85.25,-11.7 -55.32,265.04 z"
   id="path526"
   style="fill:#000000;fill-opacity:1" />
			<path
   fill="#ffffff"
   d="m 2136.18,1405.21 c -0.67,3.03 -1.93,5.51 -3.77,7.44 -1.85,1.93 -3.94,3.06 -6.29,3.38 l -204.94,28.13 16.6,-79.39 127.74,-17.53 5.53,-26.57 -114.42,15.7 c -2.85,0.39 -5.28,-0.53 -7.29,-2.78 -2.01,-2.24 -3.02,-5.14 -3.02,-8.71 0,-1.47 0.08,-2.53 0.25,-3.18 l 27.66,-132.52 c 0.67,-3.03 1.89,-5.56 3.65,-7.58 1.76,-2.02 3.81,-3.2 6.16,-3.52 l 205.19,-28.16 -16.6,79.7 -170.24,23.36 39.73,7.45 -2.77,13.28 114.42,-15.7 c 2.85,-0.39 5.24,0.49 7.17,2.64 1.93,2.15 2.89,5.01 2.89,8.57 0,1.47 -0.09,2.64 -0.25,3.5 z"
   id="path528"
   style="fill:#000000;fill-opacity:1" />
		</g>
	</g>
	<g
   id="g536"
   style="fill:#000000;fill-opacity:1">
		<path
   fill="#ffffff"
   d="m 1330.79,822.57 c -25.02,0 -57.26,-10.87 -96.47,-32.58 -57.28,-31.72 -123.24,-83.6 -185.71,-146.07 C 986.14,581.45 934.27,515.5 902.54,458.21 865.91,392.07 860.13,345.74 885.37,320.51 c 25.23,-25.23 71.56,-19.45 137.7,17.18 57.28,31.72 123.24,83.6 185.71,146.07 62.47,62.47 114.35,128.42 146.07,185.71 36.63,66.14 42.41,112.47 17.18,137.7 v 0 c -10.28,10.26 -24.06,15.4 -41.24,15.4 z M 926.91,345.71 c -6.85,0 -11.01,1.52 -12.91,3.42 -5.69,5.69 -8.01,31.72 23.97,89.46 29.94,54.07 79.4,116.82 139.28,176.69 59.87,59.87 122.62,109.33 176.69,139.28 57.74,31.97 83.76,29.66 89.46,23.97 5.69,-5.69 8.01,-31.72 -23.97,-89.46 C 1289.49,635 1240.02,572.25 1180.15,512.38 1120.28,452.51 1057.53,403.05 1003.46,373.1 964.98,351.79 940.59,345.71 926.91,345.71 Z"
   id="path534"
   style="fill:#000000;fill-opacity:1" />
	</g>
	<g
   id="g540"
   style="fill:#000000;fill-opacity:1">
		<path
   fill="#ffffff"
   d="m 1188.75,858.23 c -19.93,0 -45.21,-8.44 -75.64,-25.29 -43.83,-24.27 -94.23,-63.9 -141.92,-111.59 -47.69,-47.69 -87.32,-98.09 -111.59,-141.92 -28.96,-52.3 -33.07,-89.39 -12.2,-110.26 20.86,-20.86 57.96,-16.76 110.26,12.2 43.83,24.27 94.23,63.9 141.92,111.59 47.69,47.69 87.32,98.09 111.59,141.92 28.96,52.3 33.07,89.39 12.2,110.26 -8.73,8.73 -20.3,13.09 -34.62,13.09 z M 882.01,496.68 c -3.6,0 -5.5,0.63 -5.99,1.12 -1.62,1.63 -4.86,18.94 19,62.01 22.49,40.61 59.71,87.81 104.8,132.9 45.09,45.09 92.29,82.31 132.91,104.8 43.07,23.85 60.39,20.62 62.01,19 1.62,-1.62 4.86,-18.94 -18.99,-62.01 -22.49,-40.61 -59.71,-87.81 -104.8,-132.91 -45.09,-45.09 -92.29,-82.31 -132.91,-104.8 -30.14,-16.68 -47.66,-20.11 -56.03,-20.11 z"
   id="path538"
   style="fill:#000000;fill-opacity:1" />
	</g>
	<g
   id="g544"
   style="fill:#000000;fill-opacity:1">
		<path
   fill="#ffffff"
   d="m 1065.17,890.81 c -47.45,0 -120.2,-58.84 -162.4,-101.04 -35.04,-35.04 -64.19,-72.13 -82.09,-104.45 -22.4,-40.45 -25.08,-69.64 -7.95,-86.77 39.93,-39.94 138.98,37.8 191.22,90.04 52.23,52.23 129.97,151.28 90.04,191.22 v 0 c -7.68,7.66 -17.54,11 -28.82,11 z M 842.11,627.93 c 0.06,5.64 3.29,20.24 18.34,45.3 16.4,27.33 41.59,58.55 70.95,87.9 29.35,29.35 60.57,54.55 87.9,70.95 25.07,15.04 39.66,18.27 45.3,18.33 -0.06,-5.64 -3.3,-20.24 -18.33,-45.3 -16.4,-27.33 -41.6,-58.55 -70.95,-87.9 -29.35,-29.35 -60.57,-54.55 -87.9,-70.95 C 862.35,631.23 847.76,628 842.11,627.93 Z"
   id="path542"
   style="fill:#000000;fill-opacity:1" />
	</g>
	<g
   id="g548"
   style="fill:#000000;fill-opacity:1">
		
			<ellipse
   transform="matrix(0.7071,-0.7071,0.7071,0.7071,-334.2767,854.774)"
   fill="#ffffff"
   cx="864.66998"
   cy="830.89001"
   rx="28.379999"
   ry="98.839996"
   id="ellipse546"
   style="fill:#000000;fill-opacity:1" />
	</g>
	<g
   id="g552"
   style="fill:#000000;fill-opacity:1">
		
			<ellipse
   transform="matrix(0.7071,-0.7071,0.7071,0.7071,-389.5569,830.1022)"
   fill="#ffffff"
   cx="807.23999"
   cy="885.28998"
   rx="15.81"
   ry="55.060001"
   id="ellipse550"
   style="fill:#000000;fill-opacity:1" />
	</g>
	<g
   id="g556"
   style="fill:#000000;fill-opacity:1">
		<path
   fill="#ffffff"
   d="m 1352.86,0 c -181.1,0 -317.28,131.84 -317.28,324.52 0,192.68 136.18,324.52 317.28,324.52 181.1,0 317.28,-131.84 317.28,-324.52 C 1670.14,131.84 1533.95,0 1352.86,0 Z m 0.2,176.91 c -76.03,0 -137.88,61.85 -137.88,137.88 h -70.15 c 0,-114.71 93.32,-208.04 208.04,-208.04 v 70.16 z"
   id="path554"
   style="fill:#000000;fill-opacity:1" />
	</g>
</g>
</svg>
