<?xml version="1.0" encoding="UTF-8" standalone="no"?>
<svg
   width="3.9979999mm"
   height="3.0109999mm"
   version="1.2"
   id="svg55"
   xml:space="preserve"
   xmlns="http://www.w3.org/2000/svg"
   xmlns:svg="http://www.w3.org/2000/svg"><desc
     id="desc9">Created by HiQPdf</desc><defs
     id="defs11" /><g
     fill="none"
     stroke="#000000"
     stroke-width="1"
     fill-rule="evenodd"
     stroke-linecap="square"
     stroke-linejoin="bevel"
     id="g400"
     transform="matrix(1.0001192,0,0,0.96788494,-8.4466318,-9.7960806)"><g
       fill="#000000"
       fill-opacity="1"
       stroke="#000000"
       stroke-opacity="1"
       stroke-width="1"
       stroke-linecap="square"
       stroke-linejoin="miter"
       stroke-miterlimit="2"
       id="g360" /><g
       fill="#000000"
       fill-opacity="1"
       stroke="#000000"
       stroke-opacity="1"
       stroke-width="1"
       stroke-linecap="square"
       stroke-linejoin="miter"
       stroke-miterlimit="2"
       id="g362" /><g
       fill="#000000"
       fill-opacity="1"
       stroke="#000000"
       stroke-opacity="1"
       stroke-width="1"
       stroke-linecap="square"
       stroke-linejoin="miter"
       stroke-miterlimit="2"
       id="g364" /><g
       fill="#000000"
       fill-opacity="1"
       stroke="#000000"
       stroke-opacity="1"
       stroke-width="1"
       stroke-linecap="square"
       stroke-linejoin="miter"
       stroke-miterlimit="2"
       id="g366" /><g
       fill="#000000"
       fill-opacity="1"
       stroke="#000000"
       stroke-opacity="1"
       stroke-width="1"
       stroke-linecap="square"
       stroke-linejoin="miter"
       stroke-miterlimit="2"
       transform="matrix(0.025,0,0,0.025,8,9.6)"
       id="g368" /><g
       fill="#000000"
       fill-opacity="1"
       stroke="none"
       transform="matrix(0.025,0,0,0.025,8,9.6)"
       id="g372"><path
         vector-effect="none"
         fill-rule="nonzero"
         d="m 579.8,267.7 c 56.5,-56.5 56.5,-148 0,-204.5 C 529.8,13.2 451,6.70001 393.5,47.8 l -1.6,1.1 c -14.4,10.3 -17.7,30.3 -7.4,44.6 10.3,14.3 30.3,17.7 44.6,7.4 l 1.6,-1.1 c 32.1,-22.9 76,-19.3 103.8,8.6 31.5,31.5 31.5,82.5 0,114 L 422.3,334.8 c -31.5,31.5 -82.5,31.5 -114,0 C 280.4,306.9 276.8,263 299.7,231 l 1.1,-1.6 c 10.3,-14.4 6.9,-34.4 -7.4,-44.6 -14.3,-10.2 -34.4,-6.9 -44.6,7.4 l -1.1,1.6 C 206.5,251.2 213,330 263,380 c 56.5,56.5 148,56.5 204.5,0 L 579.8,267.7 M 60.2,244.3 c -56.5,56.5 -56.5,148 0,204.5 50,50 128.8,56.5 186.3,15.4 l 1.6,-1.1 c 14.4,-10.3 17.7,-30.3 7.4,-44.6 -10.3,-14.3 -30.3,-17.7 -44.6,-7.4 l -1.6,1.1 c -32.1,22.9 -76,19.3 -103.8,-8.6 C 74,372 74,321 105.5,289.5 L 217.7,177.2 c 31.5,-31.5 82.5,-31.5 114,0 27.9,27.9 31.5,71.8 8.6,103.9 l -1.1,1.6 c -10.3,14.4 -6.9,34.4 7.4,44.6 14.3,10.2 34.4,6.9 44.6,-7.4 l 1.1,-1.6 C 433.5,260.8 427,182 377,132 320.5,75.5 229,75.5 172.5,132 L 60.2,244.3"
         id="path370" /></g><g
       fill="#000000"
       fill-opacity="1"
       stroke="#000000"
       stroke-opacity="1"
       stroke-width="1"
       stroke-linecap="square"
       stroke-linejoin="miter"
       stroke-miterlimit="2"
       transform="matrix(0.025,0,0,0.025,8,9.6)"
       id="g374" /><g
       fill="#000000"
       fill-opacity="1"
       stroke="#000000"
       stroke-opacity="1"
       stroke-width="1"
       stroke-linecap="square"
       stroke-linejoin="miter"
       stroke-miterlimit="2"
       transform="matrix(0.025,0,0,0.025,8,9.6)"
       id="g376" /><g
       fill="#000000"
       fill-opacity="1"
       stroke="#000000"
       stroke-opacity="1"
       stroke-width="1"
       stroke-linecap="square"
       stroke-linejoin="miter"
       stroke-miterlimit="2"
       id="g378" /><g
       fill="#000000"
       fill-opacity="1"
       stroke="#000000"
       stroke-opacity="1"
       stroke-width="1"
       stroke-linecap="square"
       stroke-linejoin="miter"
       stroke-miterlimit="2"
       id="g380" /><g
       fill="#000000"
       fill-opacity="1"
       stroke="#000000"
       stroke-opacity="1"
       stroke-width="1"
       stroke-linecap="square"
       stroke-linejoin="miter"
       stroke-miterlimit="2"
       id="g382" /><g
       fill="#000000"
       fill-opacity="1"
       stroke="#000000"
       stroke-opacity="1"
       stroke-width="1"
       stroke-linecap="square"
       stroke-linejoin="miter"
       stroke-miterlimit="2"
       id="g384" /><g
       fill="#000000"
       fill-opacity="1"
       stroke="#000000"
       stroke-opacity="1"
       stroke-width="1"
       stroke-linecap="square"
       stroke-linejoin="miter"
       stroke-miterlimit="2"
       transform="matrix(0.025,0,0,0.025,8,9.6)"
       id="g386" /><g
       fill="#000000"
       fill-opacity="1"
       stroke="#000000"
       stroke-opacity="1"
       stroke-width="1"
       stroke-linecap="square"
       stroke-linejoin="miter"
       stroke-miterlimit="2"
       id="g388" /><g
       fill="#000000"
       fill-opacity="1"
       stroke="#000000"
       stroke-opacity="1"
       stroke-width="1"
       stroke-linecap="square"
       stroke-linejoin="miter"
       stroke-miterlimit="2"
       id="g390" /><g
       fill="#000000"
       fill-opacity="1"
       stroke="#000000"
       stroke-opacity="1"
       stroke-width="1"
       stroke-linecap="square"
       stroke-linejoin="miter"
       stroke-miterlimit="2"
       id="g392" /><g
       fill="#000000"
       fill-opacity="1"
       stroke="#000000"
       stroke-opacity="1"
       stroke-width="1"
       stroke-linecap="square"
       stroke-linejoin="miter"
       stroke-miterlimit="2"
       id="g394" /><g
       fill="#000000"
       fill-opacity="1"
       stroke="#000000"
       stroke-opacity="1"
       stroke-width="1"
       stroke-linecap="square"
       stroke-linejoin="miter"
       stroke-miterlimit="2"
       id="g396" /><g
       fill="#000000"
       fill-opacity="1"
       stroke="#000000"
       stroke-opacity="1"
       stroke-width="1"
       stroke-linecap="square"
       stroke-linejoin="miter"
       stroke-miterlimit="2"
       id="g398" /></g></svg>
